HIERARCHY
ROOT Hips
{
	OFFSET -14.64140 90.27770 -84.91600
	CHANNELS 6 Xposition Yposition Zposition Zrotation Xrotation Yrotation
	JOINT Spine
	{
		OFFSET 0.00000 13.20850 -1.60436
		CHANNELS 3 Zrotation Xrotation Yrotation
		JOINT Spine1
		{
			OFFSET 0.00000 8.61716 0.00000
			CHANNELS 3 Zrotation Xrotation Yrotation
			JOINT Spine2
			{
				OFFSET 0.00000 8.61717 0.00000
				CHANNELS 3 Zrotation Xrotation Yrotation
				JOINT Spine3
				{
					OFFSET 0.00000 8.61717 0.00000
					CHANNELS 3 Zrotation Xrotation Yrotation
					JOINT Neck
					{
						OFFSET 0.00000 11.07920 1.10792
						CHANNELS 3 Zrotation Xrotation Yrotation
						JOINT Neck1
						{
							OFFSET 0.00000 7.08032 0.00000
							CHANNELS 3 Zrotation Xrotation Yrotation
							JOINT Head
							{
								OFFSET 0.00000 7.08031 0.00000
								CHANNELS 3 Zrotation Xrotation Yrotation
								End site
								{
									OFFSET 0.00000 0.00000 0.00000
								}
							}
						}
					}
					JOINT RightShoulder
					{
						OFFSET -0.01000 7.91373 5.19711
						CHANNELS 3 Zrotation Xrotation Yrotation
						JOINT RightArm
						{
							OFFSET -18.41580 0.00000 0.00000
							CHANNELS 3 Zrotation Xrotation Yrotation
							JOINT RightForeArm
							{
								OFFSET -29.11090 0.00000 0.00000
								CHANNELS 3 Zrotation Xrotation Yrotation
								JOINT RightHand
								{
									OFFSET -24.65040 0.00000 0.00000
									CHANNELS 3 Zrotation Xrotation Yrotation
									JOINT RightHandThumb1
									{
										OFFSET -5.35114 -0.85590 3.97906
										CHANNELS 3 Zrotation Xrotation Yrotation
										JOINT RightHandThumb2
										{
											OFFSET -4.52789 0.00000 0.00000
											CHANNELS 3 Zrotation Xrotation Yrotation
											JOINT RightHandThumb3
											{
												OFFSET -2.46976 0.00000 0.00000
												CHANNELS 3 Zrotation Xrotation Yrotation
												End site
												{
													OFFSET 0.00000 0.00000 0.00000
												}
											}
										}
									}
									JOINT RightHandIndex1
									{
										OFFSET -14.26970 0.00000 2.88139
										CHANNELS 3 Zrotation Xrotation Yrotation
										JOINT RightHandIndex2
										{
											OFFSET -5.48836 0.00000 0.00000
											CHANNELS 3 Zrotation Xrotation Yrotation
											JOINT RightHandIndex3
											{
												OFFSET -3.01859 0.00000 0.00000
												CHANNELS 3 Zrotation Xrotation Yrotation
												End site
												{
													OFFSET 0.00000 0.00000 0.00000
												}
											}
										}
									}
									JOINT RightHandMiddle1
									{
										OFFSET -14.26970 0.00000 -0.09147
										CHANNELS 3 Zrotation Xrotation Yrotation
										JOINT RightHandMiddle2
										{
											OFFSET -6.17441 0.00000 0.00000
											CHANNELS 3 Zrotation Xrotation Yrotation
											JOINT RightHandMiddle3
											{
												OFFSET -3.56743 0.00000 0.00000
												CHANNELS 3 Zrotation Xrotation Yrotation
												End site
												{
													OFFSET 0.00000 0.00000 0.00000
												}
											}
										}
									}
									JOINT RightHandRing1
									{
										OFFSET -12.69180 0.00000 -3.06433
										CHANNELS 3 Zrotation Xrotation Yrotation
										JOINT RightHandRing2
										{
											OFFSET -5.62556 0.00000 0.00000
											CHANNELS 3 Zrotation Xrotation Yrotation
											JOINT RightHandRing3
											{
												OFFSET -3.56744 0.00000 0.00000
												CHANNELS 3 Zrotation Xrotation Yrotation
												End site
												{
													OFFSET 0.00000 0.00000 0.00000
												}
											}
										}
									}
									JOINT RightHandPinky1
									{
										OFFSET -11.11390 0.00000 -6.03719
										CHANNELS 3 Zrotation Xrotation Yrotation
										JOINT RightHandPinky2
										{
											OFFSET -4.52789 0.00000 0.00000
											CHANNELS 3 Zrotation Xrotation Yrotation
											JOINT RightHandPinky3
											{
												OFFSET -2.46976 0.00000 0.00000
												CHANNELS 3 Zrotation Xrotation Yrotation
												End site
												{
													OFFSET 0.00000 0.00000 0.00000
												}
											}
										}
									}
								}
							}
						}
					}
					JOINT LeftShoulder
					{
						OFFSET 0.01000 7.91373 5.19711
						CHANNELS 3 Zrotation Xrotation Yrotation
						JOINT LeftArm
						{
							OFFSET 18.41580 0.00000 0.00000
							CHANNELS 3 Zrotation Xrotation Yrotation
							JOINT LeftForeArm
							{
								OFFSET 29.11090 0.00000 0.00000
								CHANNELS 3 Zrotation Xrotation Yrotation
								JOINT LeftHand
								{
									OFFSET 24.65040 0.00000 0.00000
									CHANNELS 3 Zrotation Xrotation Yrotation
									JOINT LeftHandThumb1
									{
										OFFSET 5.35114 -0.85590 3.97906
										CHANNELS 3 Zrotation Xrotation Yrotation
										JOINT LeftHandThumb2
										{
											OFFSET 4.52789 0.00000 0.00000
											CHANNELS 3 Zrotation Xrotation Yrotation
											JOINT LeftHandThumb3
											{
												OFFSET 2.46977 0.00000 0.00000
												CHANNELS 3 Zrotation Xrotation Yrotation
												End site
												{
													OFFSET 0.00000 0.00000 0.00000
												}
											}
										}
									}
									JOINT LeftHandIndex1
									{
										OFFSET 14.26970 0.00000 2.88139
										CHANNELS 3 Zrotation Xrotation Yrotation
										JOINT LeftHandIndex2
										{
											OFFSET 5.48836 0.00000 0.00000
											CHANNELS 3 Zrotation Xrotation Yrotation
											JOINT LeftHandIndex3
											{
												OFFSET 3.01859 0.00000 0.00000
												CHANNELS 3 Zrotation Xrotation Yrotation
												End site
												{
													OFFSET 0.00000 0.00000 0.00000
												}
											}
										}
									}
									JOINT LeftHandMiddle1
									{
										OFFSET 14.26970 0.00000 -0.09147
										CHANNELS 3 Zrotation Xrotation Yrotation
										JOINT LeftHandMiddle2
										{
											OFFSET 6.17440 0.00000 0.00000
											CHANNELS 3 Zrotation Xrotation Yrotation
											JOINT LeftHandMiddle3
											{
												OFFSET 3.56744 0.00000 0.00000
												CHANNELS 3 Zrotation Xrotation Yrotation
												End site
												{
													OFFSET 0.00000 0.00000 0.00000
												}
											}
										}
									}
									JOINT LeftHandRing1
									{
										OFFSET 12.69180 0.00000 -3.06433
										CHANNELS 3 Zrotation Xrotation Yrotation
										JOINT LeftHandRing2
										{
											OFFSET 5.62556 0.00000 0.00000
											CHANNELS 3 Zrotation Xrotation Yrotation
											JOINT LeftHandRing3
											{
												OFFSET 3.56744 0.00000 0.00000
												CHANNELS 3 Zrotation Xrotation Yrotation
												End site
												{
													OFFSET 0.00000 0.00000 0.00000
												}
											}
										}
									}
									JOINT LeftHandPinky1
									{
										OFFSET 11.11390 0.00000 -6.03719
										CHANNELS 3 Zrotation Xrotation Yrotation
										JOINT LeftHandPinky2
										{
											OFFSET 4.52789 0.00000 0.00000
											CHANNELS 3 Zrotation Xrotation Yrotation
											JOINT LeftHandPinky3
											{
												OFFSET 2.46976 0.00000 0.00000
												CHANNELS 3 Zrotation Xrotation Yrotation
												End site
												{
													OFFSET 0.00000 0.00000 0.00000
												}
											}
										}
									}
								}
							}
						}
					}
					JOINT pCube4
					{
						OFFSET 0.00000 10.91090 1.10792
						CHANNELS 3 Zrotation Xrotation Yrotation
						End site
						{
							OFFSET 0.00000 0.00000 0.00000
						}
					}
				}
			}
		}
	}
	JOINT RightUpLeg
	{
		OFFSET -9.98441 0.00000 0.00000
		CHANNELS 3 Zrotation Xrotation Yrotation
		JOINT RightLeg
		{
			OFFSET 0.00000 -42.11790 0.00000
			CHANNELS 3 Zrotation Xrotation Yrotation
			JOINT RightFoot
			{
				OFFSET 0.00000 -45.00020 -0.00001
				CHANNELS 3 Zrotation Xrotation Yrotation
				JOINT RightForeFoot
				{
					OFFSET 0.00000 -3.74820 0.00000
					CHANNELS 3 Zrotation Xrotation Yrotation
					JOINT RightToeBase
					{
						OFFSET 0.00000 0.06325 14.43120
						CHANNELS 3 Zrotation Xrotation Yrotation
						End site
						{
							OFFSET 0.00000 0.00000 0.00000
						}
					}
				}
			}
		}
	}
	JOINT LeftUpLeg
	{
		OFFSET 9.98441 0.00000 0.00000
		CHANNELS 3 Zrotation Xrotation Yrotation
		JOINT LeftLeg
		{
			OFFSET 0.00000 -42.11800 0.00000
			CHANNELS 3 Zrotation Xrotation Yrotation
			JOINT LeftFoot
			{
				OFFSET 0.00000 -45.00070 0.00000
				CHANNELS 3 Zrotation Xrotation Yrotation
				JOINT LeftForeFoot
				{
					OFFSET 0.00000 -3.74824 0.00000
					CHANNELS 3 Zrotation Xrotation Yrotation
					JOINT LeftToeBase
					{
						OFFSET 0.00000 0.06325 14.43110
						CHANNELS 3 Zrotation Xrotation Yrotation
						End site
						{
							OFFSET 0.00000 0.00000 0.00000
						}
					}
				}
			}
		}
	}
}
MOTION
Frames: 4
Frame Time: 0.050000
-0.03012674958013007 -0.009830409307834114 -0.012866854057705804 0.032104213323432024 0.049416192798750605 0.04581702277003215 0.3435092713247607 1.4260251994520101 -1.3797321277599797 -0.5473282478239312 3.766732851250875 0.2825518027564078 -0.7022997825986267 -1.6592761808599847 0.751242406956609 -0.8788828111198268 -0.5267039018127224 -0.43697647915341303 -0.3602627252461226 12.84725478944341 0.2173817219543365 0.6836481241718164 -0.6289405705425698 -0.0786623037407495 0.7861097288883391 -16.166263392320694 -0.06833152201321196 -2.77336955191759 1.400791551087674 -15.287334632714218 72.35797277787636 14.746082327767125 5.188375368167203 13.300317498265766 5.629873282615661 89.53177051755364 23.652337795802428 -0.36468397493419086 -4.992911068659202 4.5710787523757475 -0.11278876237687617 -1.6344749205935782 0.035634803196530854 -0.04982003572530471 -56.25782058972594 0.04587794312942665 -0.014222058589500831 -56.26627548353457 -38.7700389002204 -0.005972564984845388 0.002283502925057055 -0.020235796509099194 0.048607169896379566 0.025768155524610016 -0.0002330136409003147 0.028557859684437005 0.025690549446642688 -36.7131587941379 0.0342767929064575 0.037857475965458826 0.019683691965233514 0.030321568068766434 -0.033884117283380165 0.03173906249040549 0.036723255352556834 -0.045090040604570204 -19.77572543011449 0.04731262300930172 0.036214596231704005 -0.043044170057125894 -0.040310671101189084 -0.008163415662582309 0.034033462859840546 -0.01751028305994737 -0.030980823309170995 24.05585959003001 -0.04882510048684344 -0.025377631918394872 28.85475291508241 -0.0348748467684863 -0.014130857091447877 28.866188459030393 0.020963197172575603 0.044661088048137294 5.47594106946615 1.5822183535231957 14.135438141581051 -76.87686713450171 26.578803720936136 -8.451002816076453 -58.8966894380361 15.549895105406637 -103.45231037790626 -21.296844547866257 0.5965009954222431 1.046329573935652 -0.5142872587608779 0.11430609749768664 -8.13328895912055 0.03373287678565291 0.04304333150633857 44.609122399713726 0.012777865157733251 -0.030757727251858828 44.59161981746147 12.416635990474761 0.04661964937176549 -0.00969115387800952 -0.029575330752279035 0.006806897721565356 -0.01815146129188113 0.046938767403724366 0.0012451088058039461 -0.025797903059985295 11.093792426361617 0.002854239595665418 -0.04131855095813194 0.031111770478066177 -0.010907850201904844 0.03692556515433046 -0.004940540268437968 -0.013315068788739715 -0.036806153405222974 4.740706123305246 -6.684271952873149e-05 0.04369925346038049 0.009613860288281834 -0.008484292719061091 0.03900023045993058 -0.00676452000341013 -0.02754532937577728 0.021425133879455313 -5.595096098182776 0.019483839491100982 -0.00530302691489949 -6.750888013748079 -0.03620107745683051 0.037198809212266336 -6.7307122653569635 -0.001957640793400896 -0.005303015070789176 0.006057194876748957 0.04915997005542237 -0.00833005389276817 8.030391030155657 3.450760278215547 -19.24761955251006 0.03364506838904689 10.420092663334417 -0.03394034514939455 -5.6274371100625915 -15.630074194096823 3.224947059353486 -0.01221661440784218 -0.043251396447934916 0.04476351041156186 -0.04507654122343954 4.6691014122734105 0.019460534943674192 12.509334674678927 -8.189028538870282 6.843261746729978 0.02592891199955038 46.41092751367809 0.05074867085127905 -4.325312687719758 -14.735856605913431 -3.856592104196962 -0.009858451032231602 0.048221130614455626 0.03405548714141894 -0.004146708265310461 -10.738624717898077 -0.0462634821986707 
-0.03502731932799198 0.03374631536502425 -0.03011658004236701 -0.0056389100858086 0.033771829865280927 -0.030779241517704187 -0.04881399700613426 1.470422475976185 -1.282485278152533 -0.4822604161681335 3.8027813965777018 0.35179440501118286 -0.6931165199169509 -1.6899860905282638 0.7104030655046436 -0.9036362365596167 -0.5486027525236953 -0.45174320492184644 -0.42315213484429703 12.985749115016272 0.24381990497989062 0.6437612972250278 -0.5769728472647379 0.07515295807384788 0.7393615124336109 -16.160598306708863 -0.05012963496183014 -2.2684010167525064 1.240041275113427 -15.262491414213697 71.9597115726714 14.924972580322136 5.1584131226995495 12.489286897530464 6.119150445123562 87.57978881644176 24.11174371783819 -0.3249201705335395 -4.649500563993741 4.533856019001985 -0.1735116734272099 -1.593034216573174 -0.047772853020988826 -0.007182953674700837 -56.21424126414627 -0.0035069510625998423 -0.017811890373600224 -56.259745972414315 -38.74735784740752 -0.00936317758167737 0.04021019214972655 -0.021850953730540964 0.011945970963865933 -0.006543444794215263 -0.04772106023558036 0.043657539667742794 0.02318244793605467 -36.73533910895073 0.035511678690331706 0.03936340189983821 -0.0030843794047309544 0.013480051616268106 0.0405226153858455 -0.02517875188272893 0.02705013967197706 -0.04886673944629482 -19.7469083702036 -0.023805823379135813 -0.0012485477771213111 0.010216988215436887 -0.0028656458324562806 0.028818425110312823 -0.02448391005060543 -0.04344380600182881 -0.029699518859207647 24.00832078351434 0.00858062280242742 0.012431144249936518 28.900162163414898 -0.0038838190713287096 -0.03253358554972343 28.858024704716566 0.028016555499454737 -0.03335816522650381 5.2269074818900805 1.4762675419645594 14.154676893911082 -76.91208777587816 26.91282730233099 -8.75488105150748 -55.58520657682103 14.54135960853126 -102.58313335882127 -21.184176581487055 0.9079660816458317 0.8488136990662228 -0.4460831302768048 0.10287036808839 -8.103245196700067 0.048962175463328546 -0.0317914380790135 44.523589451014566 -0.03539715219214787 0.046070039701000126 44.576193668906456 12.472446584580874 -0.02186697821616438 -0.03190937373767132 0.023398268686388182 0.013394145617543141 0.039553894583210854 -0.031220424197738624 -0.006588576315616163 0.006140137565795455 11.097122698470114 0.010451420828565967 0.0020654981997590134 -0.0086192700851526 -0.026579528133576454 -0.025446977742297115 0.022681767251251497 -0.011015446177989312 -0.00546815999057693 4.752206494712447 0.024427440696484077 0.006522480511521806 0.014371483526140184 -0.03380979373931441 -0.03450036086359431 -0.03343059241629729 -0.031366152031056076 -0.027870580134663907 -5.635793805585467 0.024841688132652123 0.040551340473468665 -6.684266868817575 -0.011777983045328984 0.04040546012459923 -6.736844573240095 -0.023363616676073402 0.033307048219039376 0.02386289717756803 0.017710027220645977 -0.0011578641453352512 8.053941097593787 3.4959648283202114 -19.174916201319164 -0.005805091961273643 10.442631730700926 -0.029580405037188822 -5.606364769490728 -15.633081249060048 3.151532323601171 -0.03544292858101673 -0.027453197953346272 -0.005277649892513438 -0.03396491704483402 4.675429991247445 0.030952461869972664 12.409588770896615 -8.257791435570265 6.904856133652973 -0.03483087945755667 46.389074426216375 0.008181919938979456 -4.356598962399812 -14.786318176118758 -3.8547454459970134 -0.020014784126046094 0.028037413723593297 0.03595012561435086 -0.021486203853445674 -10.74074572071608 0.04702670356735955 
0.03572050110045752 -0.011664100976233355 -0.02315142704149522 -0.03349915720680474 0.031240941347661567 0.004355946414099718 -0.5363734637426915 1.4456128297106066 -1.2299076998246348 -0.46237193683175404 3.937883604433708 0.31980219270899124 -0.6904614005608887 -1.7215489515795375 0.6530658206597441 -0.8414468347760754 -0.49558999212342936 -0.39825766811379437 -0.42344391583689517 13.206503617287588 0.3144798261611743 0.6613725642766318 -0.6632117831013635 0.1812315964660961 0.7897485418400594 -16.166245654847955 -0.024581426442654004 -1.8110787084198783 1.1303951720673049 -15.13893736188828 71.43542631694596 14.220490227025373 5.202457689677635 12.299871332705989 7.0419529068212245 85.03395718687266 24.670332335045618 -0.3063550924724695 -4.25489111583799 4.4824450203786865 -0.11616018658237341 -1.6203377576649896 -0.04540812573546569 0.024155163873609713 -56.202795478291144 0.006413470318973584 0.0010868886978634186 -56.266572592667934 -38.72633091575482 0.040897382450087574 0.03226130991632212 -0.037705329581171065 -0.04061179325885271 0.0240662045631101 0.010583780550121887 0.0357183846190479 -0.0036554631591492765 -36.68452923141843 -0.014865285898430057 0.0478723033723961 -0.044313522604422506 0.014419931363589919 -0.0073209423591601005 -0.040803422980415706 -0.01981966748727722 -0.039101350375628965 -19.745077259555003 0.01231822955690031 0.026685196357342688 -0.04147887277254249 -0.02297607940848306 -0.03314425388574472 0.0054073662381729035 0.019770247008188326 -0.005139637512067218 24.08636278668447 0.026312337262517204 -0.029447437285600852 28.870321805041055 0.04083107929739665 -0.01360654640121274 28.872492105925474 0.011677880578564946 -0.021545957399961433 4.906324661908567 1.4121584705130028 14.163645383526577 -76.71017720489165 26.984618075547132 -9.253562877040181 -51.742737381984455 13.616876571766305 -101.73585102554861 -21.104737411503436 1.694431363680216 0.2105740996470251 -0.452422747417078 0.11217345083283682 -8.142645861262096 0.023383575857465554 -0.043050982275008864 44.53602569042419 -0.02957833592003441 -0.017633855836185562 44.59424400056132 12.447158227544843 0.019721734432022506 0.036910523656876304 0.03930742233258422 0.042241494348488 -0.027948879337409326 0.014155711292144857 -0.004285995014508532 0.016900051908468976 11.096151924307803 -0.012838470616651828 -0.040556037641170745 -0.028573314437582115 -0.0436634048263485 0.004374052384239922 0.009916348176206513 -0.048686146303568496 -0.038714612149608404 4.738788734721126 -0.011449042101778316 0.041447835755902045 -0.017392655888766966 -0.033598929069485514 -0.004421318956602043 -0.010267495536282993 0.013323866295441507 0.030109187067799525 -5.600249154937751 -0.0065191126563857015 -0.042751005214997605 -6.726941903450851 0.009709638485842968 -0.035548092511566536 -6.727315056874094 0.006949607594841297 -0.029612676848584762 -0.007375026747384939 -0.026712676054672643 -0.001767972025163814 8.043663477529305 3.48050130458562 -19.269283729176326 -0.03412895918566987 10.369348000641056 -0.01782286042576135 -5.617654920513952 -15.687308469691557 3.2167057426974393 -0.009667638623469085 -0.0417621967794032 -0.015846431468731353 0.04429630099893069 4.680783879134381 0.03994490825245181 12.465702895615241 -8.272578591977872 6.871990666318557 -0.02550716360219091 46.362459540436035 -0.016391144040245293 -4.296242120741243 -14.760097676159496 -3.837486809800315 0.03827047908441179 0.042707521834037684 0.008217903525789555 -0.017851899683122573 -10.724313577776408 0.0020485974644579197 
-0.01290619950369926 0.04396738538636813 0.01521334388908974 -0.021251178454756582 0.013115751805359023 -0.0005059249362379582 -0.7157385146629556 1.4425647528787753 -1.1788160548763378 -0.45158186417331336 3.944921331178523 0.28141956465045465 -0.7529123804959221 -1.7849571603898422 0.5848105777366692 -0.8226582480351793 -0.5450954142516172 -0.5093816854702906 -0.43173263329104206 13.44532760676009 0.3699178922940029 0.6730158552214593 -0.7153449006521592 0.33950338064855595 0.7065147314282598 -16.2889600589554 -0.005299057161219704 -1.7801094923591554 0.9860100213727077 -15.24411436954951 71.32284694972168 12.421052241209006 5.5720832408595165 12.232561052433315 8.354668859709868 82.44359774474344 25.061172257480422 -0.2504267980591438 -3.604375637373748 4.505191189655889 -0.08056550881960847 -1.559487305504527 0.0014284191742547929 0.01841543525395614 -56.21594816520218 -0.04302748004034634 -0.02295720289046405 -56.237794108088714 -38.797784421004195 0.01753252432913744 0.003896610938978212 -0.010174213230202393 -0.00257820626961347 -0.035483861585092355 0.008459170572736128 0.03238939655962211 -0.02631127923577587 -36.70994671131226 -0.03918838886142243 0.0214083953245744 -0.0011543294233356525 -0.032597479787988576 0.009031003175501958 0.04040816508951804 0.0349991918673474 -0.019770008102240097 -19.713848001724582 -0.03102034421042916 0.04882829878632237 0.027443709513463893 0.0271691343413032 -0.039429147243929125 -0.007240273169584113 -0.04580044290609227 0.0005174000001193599 24.031816712155557 0.024233419615359072 0.0013810001281682803 28.816323426862848 -0.03886771695148402 -0.03538658219827287 28.841934164079312 0.03193269613585726 0.0013041024518692444 4.906254269992543 1.3869966468640162 14.231301708248122 -76.62633283607086 26.831086651558465 -9.910772623250784 -47.523249065114456 12.586193452503455 -100.98395472245906 -21.123073792805915 2.311681333576811 -0.281965718683717 -0.48716460263740724 0.03430935905652862 -8.168700284742087 0.02509962652714935 0.01060140731778226 44.59688792935431 0.03362955122263585 -0.03319015198139475 44.58853050039165 12.439569210391676 -0.030365990356911465 0.004503464224440876 0.0012144417482924648 -0.017535893743802374 0.01012970105253701 -0.010074985413142556 -0.0350477458931675 0.04383561567097744 11.140043905427795 -0.04405059959489705 -0.0008374615218198759 -0.04068601514179557 -0.009251951713828638 0.03162858206472105 -0.011192824482774186 -0.019947251714732484 0.030613867283858665 4.754649359576603 -0.04811827446012865 -0.015938126143422857 -0.020208089191578304 -0.04889105005766348 -0.008167931073762234 0.03641651891730131 0.044332014487409366 -0.015398478840457691 -5.574389906903531 -0.027427621133333628 -0.0028105229487834743 -6.7677518794915965 0.011573154611179118 0.029604980427705405 -6.718663552290902 -0.03934466043833271 0.008318221476536517 -0.01104370606876557 0.007318912684068395 0.031471521043397184 8.092884743635084 3.4936963804078984 -19.173216790844858 0.01347837525985251 10.420997669868314 0.03770318520647238 -5.636720915259535 -15.671211180515204 3.1895015817592496 0.0071928217097352466 -0.029717804865079852 -0.013858956983897193 -0.021381262306379874 4.7204353084219814 -0.027568023406335497 12.459602627197306 -8.19591430802941 6.875874575960321 -0.011992900191580416 46.379285493256134 -0.018704916372780375 -4.285839635107644 -14.736407621613562 -3.794530229608003 0.04520433284737022 0.04033487545483923 -0.01172785712911431 -0.012809901861827906 -10.750803381282685 0.0006746991384073756 
